<?xml version="1.0" standalone="no"?><!DOCTYPE svg PUBLIC "-//W3C//DTD SVG 1.1//EN" "http://www.w3.org/Graphics/SVG/1.1/DTD/svg11.dtd"><svg class="icon" width="200px" height="200.00px" viewBox="0 0 1024 1024" version="1.1" xmlns="http://www.w3.org/2000/svg"><path fill="#ffffff" d="M726.271573 810.666667a42.666667 42.666667 0 0 1 0-85.333334h152.96L576.084907 422.186667l-176.64 176.725333-6.485334 6.4a42.666667 42.666667 0 0 1-60.330666 0l-17.493334-17.450667-301.696-301.653333a42.666667 42.666667 0 1 1 60.330667-60.373333l289.024 288.981333 157.312-157.269333 25.813333-25.898667a42.666667 42.666667 0 0 1 60.330667 0l13.994667 13.994667L939.604907 664.96V512a42.666667 42.666667 0 0 1 85.333333 0v257.408l-0.170667 2.218667L1024.93824 768a43.008 43.008 0 0 1-8.96 26.154667c-2.218667 2.858667-4.693333 5.333333-7.466667 7.509333l3.925334-3.498667a43.008 43.008 0 0 1-17.706667 10.666667l-0.896 0.256a42.368 42.368 0 0 1-4.053333 0.896l-0.938667 0.170667-1.578667 0.213333a42.837333 42.837333 0 0 1-3.584 0.256L982.271573 810.666667h-256z"  /></svg>